<mxfile host="app.diagrams.net" modified="2023-11-22T04:46:03.693Z" agent="Mozilla/5.0 (Windows NT 10.0; Win64; x64) AppleWebKit/537.36 (KHTML, like Gecko) Chrome/119.0.0.0 Safari/537.36" etag="OBYEHDEIOGmYLgsgGU4S" version="22.1.3" type="github">
  <diagram id="C5RBs43oDa-KdzZeNtuy" name="Page-1">
    <mxGraphModel dx="1912" dy="1061" grid="1" gridSize="10" guides="1" tooltips="1" connect="1" arrows="1" fold="1" page="1" pageScale="1" pageWidth="827" pageHeight="1169" math="0" shadow="0">
      <root>
        <mxCell id="WIyWlLk6GJQsqaUBKTNV-0" />
        <mxCell id="WIyWlLk6GJQsqaUBKTNV-1" parent="WIyWlLk6GJQsqaUBKTNV-0" />
        <mxCell id="PTZ7RgBuiUIIIeruw7Wa-16" style="edgeStyle=orthogonalEdgeStyle;rounded=0;orthogonalLoop=1;jettySize=auto;html=1;exitX=0.25;exitY=1;exitDx=0;exitDy=0;entryX=1;entryY=0.5;entryDx=0;entryDy=0;" edge="1" parent="WIyWlLk6GJQsqaUBKTNV-1" source="PTZ7RgBuiUIIIeruw7Wa-0" target="PTZ7RgBuiUIIIeruw7Wa-9">
          <mxGeometry relative="1" as="geometry">
            <mxPoint x="372.0526315789475" y="530" as="targetPoint" />
          </mxGeometry>
        </mxCell>
        <mxCell id="PTZ7RgBuiUIIIeruw7Wa-17" style="edgeStyle=orthogonalEdgeStyle;rounded=0;orthogonalLoop=1;jettySize=auto;html=1;exitX=0.75;exitY=1;exitDx=0;exitDy=0;entryX=0;entryY=0.5;entryDx=0;entryDy=0;" edge="1" parent="WIyWlLk6GJQsqaUBKTNV-1" source="PTZ7RgBuiUIIIeruw7Wa-0" target="PTZ7RgBuiUIIIeruw7Wa-14">
          <mxGeometry relative="1" as="geometry">
            <mxPoint x="456.2631578947369" y="520" as="targetPoint" />
          </mxGeometry>
        </mxCell>
        <mxCell id="PTZ7RgBuiUIIIeruw7Wa-18" style="edgeStyle=orthogonalEdgeStyle;rounded=0;orthogonalLoop=1;jettySize=auto;html=1;exitX=0.5;exitY=1;exitDx=0;exitDy=0;" edge="1" parent="WIyWlLk6GJQsqaUBKTNV-1" source="PTZ7RgBuiUIIIeruw7Wa-0" target="PTZ7RgBuiUIIIeruw7Wa-7">
          <mxGeometry relative="1" as="geometry" />
        </mxCell>
        <mxCell id="PTZ7RgBuiUIIIeruw7Wa-19" style="edgeStyle=orthogonalEdgeStyle;rounded=0;orthogonalLoop=1;jettySize=auto;html=1;exitX=0.5;exitY=0;exitDx=0;exitDy=0;" edge="1" parent="WIyWlLk6GJQsqaUBKTNV-1" source="PTZ7RgBuiUIIIeruw7Wa-0">
          <mxGeometry relative="1" as="geometry">
            <mxPoint x="414.1578947368423" y="200" as="targetPoint" />
          </mxGeometry>
        </mxCell>
        <mxCell id="PTZ7RgBuiUIIIeruw7Wa-22" style="edgeStyle=orthogonalEdgeStyle;rounded=0;orthogonalLoop=1;jettySize=auto;html=1;exitX=0.75;exitY=0;exitDx=0;exitDy=0;entryX=0;entryY=0.5;entryDx=0;entryDy=0;" edge="1" parent="WIyWlLk6GJQsqaUBKTNV-1" source="PTZ7RgBuiUIIIeruw7Wa-0" target="PTZ7RgBuiUIIIeruw7Wa-21">
          <mxGeometry relative="1" as="geometry">
            <mxPoint x="460" y="240" as="targetPoint" />
          </mxGeometry>
        </mxCell>
        <mxCell id="PTZ7RgBuiUIIIeruw7Wa-24" style="edgeStyle=orthogonalEdgeStyle;rounded=0;orthogonalLoop=1;jettySize=auto;html=1;exitX=0.25;exitY=0;exitDx=0;exitDy=0;entryX=1;entryY=0.5;entryDx=0;entryDy=0;" edge="1" parent="WIyWlLk6GJQsqaUBKTNV-1" source="PTZ7RgBuiUIIIeruw7Wa-0" target="PTZ7RgBuiUIIIeruw7Wa-23">
          <mxGeometry relative="1" as="geometry">
            <mxPoint x="372.0526315789475" y="240" as="targetPoint" />
          </mxGeometry>
        </mxCell>
        <mxCell id="PTZ7RgBuiUIIIeruw7Wa-0" value="&amp;lt;&amp;lt;System&amp;gt;&amp;gt;&lt;br&gt;MENTCARE" style="rounded=0;whiteSpace=wrap;html=1;" vertex="1" parent="WIyWlLk6GJQsqaUBKTNV-1">
          <mxGeometry x="330" y="360" width="168" height="40" as="geometry" />
        </mxCell>
        <mxCell id="PTZ7RgBuiUIIIeruw7Wa-7" value="&amp;lt;&amp;lt;System&amp;gt;&amp;gt;&lt;br&gt;APPOINTMENTS SYSTEM" style="rounded=0;whiteSpace=wrap;html=1;" vertex="1" parent="WIyWlLk6GJQsqaUBKTNV-1">
          <mxGeometry x="320" y="560" width="188" height="80" as="geometry" />
        </mxCell>
        <mxCell id="PTZ7RgBuiUIIIeruw7Wa-9" value="&amp;lt;&amp;lt;System&amp;gt;&amp;gt;&lt;br&gt;HC STATISTICS&lt;br&gt;SYSTEM" style="rounded=0;whiteSpace=wrap;html=1;" vertex="1" parent="WIyWlLk6GJQsqaUBKTNV-1">
          <mxGeometry x="40" y="480" width="160" height="80" as="geometry" />
        </mxCell>
        <mxCell id="PTZ7RgBuiUIIIeruw7Wa-14" value="&amp;lt;&amp;lt;System&amp;gt;&amp;gt;&lt;br&gt;PRESCRIPTION SYSTEM" style="rounded=0;whiteSpace=wrap;html=1;" vertex="1" parent="WIyWlLk6GJQsqaUBKTNV-1">
          <mxGeometry x="640" y="480" width="160" height="80" as="geometry" />
        </mxCell>
        <mxCell id="PTZ7RgBuiUIIIeruw7Wa-20" value="&amp;lt;&amp;lt;System&amp;gt;&amp;gt;&lt;br&gt;PATIENT RECORD SYSTEM" style="rounded=0;whiteSpace=wrap;html=1;" vertex="1" parent="WIyWlLk6GJQsqaUBKTNV-1">
          <mxGeometry x="320" y="120" width="200" height="80" as="geometry" />
        </mxCell>
        <mxCell id="PTZ7RgBuiUIIIeruw7Wa-21" value="&amp;lt;&amp;lt;System&amp;gt;&amp;gt;&lt;br&gt;ADMISSIONS SYSTEM" style="rounded=0;whiteSpace=wrap;html=1;" vertex="1" parent="WIyWlLk6GJQsqaUBKTNV-1">
          <mxGeometry x="640" y="200" width="160" height="80" as="geometry" />
        </mxCell>
        <mxCell id="PTZ7RgBuiUIIIeruw7Wa-23" value="&amp;lt;&amp;lt;System&amp;gt;&amp;gt;&lt;br&gt;MANAGEMENT&amp;nbsp;&lt;br&gt;REPORTING&lt;br&gt;SYSTEM" style="rounded=0;whiteSpace=wrap;html=1;" vertex="1" parent="WIyWlLk6GJQsqaUBKTNV-1">
          <mxGeometry x="40" y="200" width="160" height="80" as="geometry" />
        </mxCell>
      </root>
    </mxGraphModel>
  </diagram>
</mxfile>
